<svg width="390" height="298" viewBox="0 0 390 298" fill="none" xmlns="http://www.w3.org/2000/svg">
<path d="M376.598 0.108948H13.4024C6.00082 0.108948 0 6.11047 0 13.5147V283.628C0 291.032 6.00082 297.034 13.4024 297.034H376.597C383.999 297.034 389.999 291.032 389.999 283.628V13.5147C390 6.11047 383.999 0.108948 376.598 0.108948Z" fill="#1685FB"/>
<path d="M390 283.625V13.5169C390 6.10743 383.997 0.110474 376.597 0.110474H355.018C362.418 0.110474 368.421 6.10743 368.421 13.5169V283.624C368.421 291.034 362.418 297.031 355.018 297.031H376.597C383.997 297.031 390 291.035 390 283.625Z" fill="#4C60E1"/>
<path d="M390 58.1623V13.5169C390 6.10743 383.997 0.110474 376.597 0.110474H13.4032C6.00311 0.111236 0 6.10819 0 13.5169V58.1623H390Z" fill="#E3F4FF"/>
<path d="M390 58.1623V13.5169C390 6.10743 383.997 0.110474 376.597 0.110474H355.018C362.418 0.110474 368.421 6.10743 368.421 13.5169V58.1623H390Z" fill="#BDDFF4"/>
<path d="M75.415 34.9676H75.3411C72.0908 34.9676 69.4561 32.3322 69.4561 29.0811C69.4561 25.8301 72.0908 23.1947 75.3411 23.1947C78.5913 23.1947 81.2635 25.8301 81.2635 29.0811C81.2635 32.3322 78.6652 34.9676 75.415 34.9676Z" fill="#54DDAC"/>
<path d="M56.1319 35.024C52.9098 35.024 50.2819 32.429 50.2484 29.1985C50.2141 25.9474 52.8215 23.2846 56.0717 23.2503C59.2869 23.2069 62.0207 25.824 62.055 29.0751C62.0893 32.3269 59.5185 34.989 56.2682 35.0232L56.1944 35.024C56.1738 35.024 56.1525 35.024 56.1319 35.024Z" fill="#FDC142"/>
<path d="M36.9239 35.0796C33.7018 35.0796 31.0731 32.4846 31.0404 29.2541C31.0068 26.0023 33.6142 23.3394 36.8645 23.3059C36.885 23.3059 36.9064 23.3059 36.9262 23.3059C40.149 23.3059 42.8135 25.901 42.847 29.1314C42.8805 32.3825 40.3105 35.0453 37.0595 35.0789L36.9856 35.0796C36.9658 35.0796 36.9444 35.0796 36.9239 35.0796Z" fill="#FC3E81"/>
<path d="M131.66 35.0796H111.236C107.985 35.0796 105.351 32.4442 105.351 29.1931C105.351 25.9421 107.985 23.3067 111.236 23.3067H131.66C134.91 23.3067 137.545 25.9421 137.545 29.1931C137.545 32.4442 134.91 35.0796 131.66 35.0796Z" fill="#BDDFF4"/>
<path d="M126.658 141.593H121.552V134.638C121.552 128.84 116.846 124.14 111.04 124.14C105.235 124.14 100.528 128.84 100.528 134.638V141.593H75.998L93.662 111.727C96.6144 106.735 94.9557 100.297 89.9568 97.3488C84.958 94.3995 78.5123 96.0568 75.5599 101.048L48.529 146.752C46.6098 149.997 46.5801 154.022 48.4506 157.295C50.3218 160.569 53.806 162.59 57.5805 162.59H100.529V194.228C100.529 200.026 105.235 204.727 111.041 204.727C116.847 204.727 121.553 200.026 121.553 194.228V162.59H126.659C132.464 162.59 137.171 157.889 137.171 152.091C137.17 146.293 132.464 141.593 126.658 141.593Z" fill="#FD9E28"/>
<path d="M332.419 141.593H327.314V134.638C327.314 128.84 322.607 124.14 316.802 124.14C310.996 124.14 306.29 128.84 306.29 134.638V141.593H281.759L299.423 111.727C302.375 106.735 300.716 100.297 295.718 97.3488C290.719 94.3995 284.273 96.0568 281.321 101.048L254.29 146.752C252.371 149.997 252.341 154.022 254.211 157.295C256.083 160.569 259.567 162.59 263.341 162.59H306.29V194.228C306.29 200.026 310.996 204.727 316.802 204.727C322.607 204.727 327.314 200.026 327.314 194.228V162.59H332.419C338.225 162.59 342.931 157.889 342.931 152.091C342.931 146.293 338.225 141.593 332.419 141.593Z" fill="#FD9E28"/>
<path fill-rule="evenodd" clip-rule="evenodd" d="M181.549 204.725H208.451C221.76 204.725 232.588 193.912 232.588 180.619V119.993C232.588 106.701 221.76 95.8871 208.451 95.8871H181.549C168.24 95.8871 157.412 106.7 157.412 119.993V180.619C157.412 193.911 168.24 204.725 181.549 204.725ZM180.368 124.144C180.368 121.206 182.763 118.814 185.705 118.814H204.294C207.237 118.814 209.632 121.206 209.632 124.144V176.468C209.632 179.407 207.237 181.798 204.294 181.798H185.705C182.763 181.798 180.368 179.406 180.368 176.468V124.144Z" fill="#FD9E28"/>
<path d="M283.273 272.579C280.01 272.579 277.327 269.934 277.327 266.671C277.327 263.408 279.935 260.763 283.198 260.763H283.273C286.536 260.763 289.181 263.408 289.181 266.671C289.181 269.934 286.536 272.579 283.273 272.579Z" fill="#E3F4FF"/>
<path d="M302.84 272.636C299.577 272.636 296.894 269.991 296.894 266.728C296.894 263.465 299.501 260.82 302.765 260.82H302.84C306.103 260.82 308.748 263.465 308.748 266.728C308.748 269.991 306.103 272.636 302.84 272.636Z" fill="#E3F4FF"/>
<path d="M322.409 272.693C322.389 272.693 322.368 272.693 322.347 272.693C319.084 272.66 316.429 269.987 316.462 266.724C316.496 263.482 319.097 260.876 322.332 260.876C322.353 260.876 322.373 260.876 322.394 260.876L322.469 260.876C325.732 260.91 328.35 263.582 328.316 266.846C328.283 270.087 325.643 272.693 322.409 272.693Z" fill="#E3F4FF"/>
<path d="M69.8367 248.314H50.2694C47.0064 248.314 44.3613 245.692 44.3613 242.458C44.3613 239.223 47.0064 236.602 50.2694 236.602H69.8367C73.0997 236.602 75.7449 239.223 75.7449 242.458C75.7449 245.692 73.0997 248.314 69.8367 248.314Z" fill="#E3F4FF"/>
<path d="M89.404 272.639H50.2694C47.0064 272.639 44.3613 270.017 44.3613 266.783C44.3613 263.548 47.0064 260.926 50.2694 260.926H89.404C92.667 260.926 95.3122 263.548 95.3122 266.783C95.3122 270.017 92.667 272.639 89.404 272.639Z" fill="#E3F4FF"/>
</svg>
