<svg width="130" height="27" viewBox="0 0 130 27" fill="none" xmlns="http://www.w3.org/2000/svg">
<path d="M0.7 20L6.6 12.16V13.54L0.86 5.9H4.46L8.36 11.28H7.36L11.24 5.9H14.86L9.1 13.54V12.16L15 20H11.38L7.34 14.42H8.36L4.34 20H0.7ZM20.3956 20.22C19.3423 20.22 18.4223 20.0133 17.6356 19.6C16.8623 19.1867 16.2623 18.5933 15.8356 17.82C15.409 17.0467 15.1956 16.1333 15.1956 15.08C15.1956 14.0267 15.409 13.12 15.8356 12.36C16.2623 11.6 16.8623 11.0133 17.6356 10.6C18.4223 10.1867 19.3423 9.98 20.3956 9.98C21.449 9.98 22.3623 10.1867 23.1356 10.6C23.9223 11.0133 24.529 11.6067 24.9556 12.38C25.3956 13.14 25.6156 14.04 25.6156 15.08C25.6156 16.1333 25.3956 17.0467 24.9556 17.82C24.529 18.5933 23.9223 19.1867 23.1356 19.6C22.3623 20.0133 21.449 20.22 20.3956 20.22ZM20.3956 17.96C21.049 17.96 21.5756 17.7267 21.9756 17.26C22.3756 16.78 22.5756 16.0533 22.5756 15.08C22.5756 14.1067 22.3756 13.3933 21.9756 12.94C21.5756 12.4733 21.049 12.24 20.3956 12.24C19.7556 12.24 19.2356 12.4733 18.8356 12.94C18.4356 13.3933 18.2356 14.1067 18.2356 15.08C18.2356 16.0533 18.4356 16.78 18.8356 17.26C19.2356 17.7267 19.7556 17.96 20.3956 17.96ZM27.453 20V10.18H30.413V12.02H30.193C30.4996 11.3667 30.953 10.8667 31.553 10.52C32.1663 10.16 32.8596 9.98 33.633 9.98C34.4196 9.98 35.0663 10.1333 35.573 10.44C36.0796 10.7333 36.4596 11.1867 36.713 11.8C36.9663 12.4 37.093 13.1667 37.093 14.1V20H34.073V14.24C34.073 13.7867 34.013 13.42 33.893 13.14C33.7863 12.8467 33.6196 12.64 33.393 12.52C33.1796 12.3867 32.9063 12.32 32.573 12.32C32.1463 12.32 31.773 12.4133 31.453 12.6C31.1463 12.7733 30.9063 13.0267 30.733 13.36C30.5596 13.6933 30.473 14.08 30.473 14.52V20H27.453ZM42.9675 20V8.46H38.3075V5.9H50.7275V8.46H46.0675V20H42.9675ZM55.5022 20.22C54.3422 20.22 53.3422 20.0133 52.5022 19.6C51.6755 19.1733 51.0355 18.58 50.5822 17.82C50.1422 17.0467 49.9222 16.14 49.9222 15.1C49.9222 14.0867 50.1355 13.2 50.5622 12.44C50.9889 11.6667 51.5822 11.0667 52.3422 10.64C53.1155 10.2 53.9889 9.98 54.9622 9.98C55.9222 9.98 56.7489 10.1867 57.4422 10.6C58.1355 11 58.6689 11.5733 59.0422 12.32C59.4289 13.0667 59.6222 13.9533 59.6222 14.98V15.74H52.4022V14.18H57.4422L57.1222 14.46C57.1222 13.6467 56.9422 13.0333 56.5822 12.62C56.2355 12.1933 55.7355 11.98 55.0822 11.98C54.5889 11.98 54.1689 12.0933 53.8222 12.32C53.4755 12.5467 53.2089 12.8733 53.0222 13.3C52.8355 13.7267 52.7422 14.24 52.7422 14.84V15C52.7422 15.68 52.8422 16.24 53.0422 16.68C53.2555 17.1067 53.5689 17.4267 53.9822 17.64C54.4089 17.8533 54.9355 17.96 55.5622 17.96C56.0955 17.96 56.6355 17.88 57.1822 17.72C57.7289 17.56 58.2222 17.3133 58.6622 16.98L59.4622 19C58.9689 19.3733 58.3622 19.6733 57.6422 19.9C56.9355 20.1133 56.2222 20.22 55.5022 20.22ZM65.0388 20.22C63.7721 20.22 62.8454 19.8933 62.2588 19.24C61.6721 18.5733 61.3788 17.5867 61.3788 16.28V5.9H64.3988V16.16C64.3988 16.4933 64.4521 16.7867 64.5588 17.04C64.6654 17.28 64.8188 17.46 65.0188 17.58C65.2321 17.7 65.4988 17.76 65.8188 17.76C65.9521 17.76 66.0921 17.7533 66.2388 17.74C66.3854 17.7267 66.5254 17.7 66.6588 17.66L66.6188 20C66.3654 20.0667 66.1054 20.12 65.8388 20.16C65.5854 20.2 65.3188 20.22 65.0388 20.22Z" fill="#4880FF"/>
<path d="M73.8653 20V5.9H79.3853C80.9853 5.9 82.3453 6.18 83.4653 6.74C84.5986 7.28667 85.4586 8.08667 86.0453 9.14C86.6453 10.18 86.9453 11.4467 86.9453 12.94C86.9453 14.4333 86.6453 15.7067 86.0453 16.76C85.4586 17.8133 84.5986 18.62 83.4653 19.18C82.3453 19.7267 80.9853 20 79.3853 20H73.8653ZM76.9653 17.46H79.2053C80.712 17.46 81.8386 17.0867 82.5853 16.34C83.332 15.5933 83.7053 14.46 83.7053 12.94C83.7053 11.42 83.3253 10.2933 82.5653 9.56C81.8186 8.81333 80.6986 8.44 79.2053 8.44H76.9653V17.46ZM92.4136 20.22C91.6936 20.22 91.0469 20.08 90.4736 19.8C89.9003 19.52 89.4536 19.14 89.1336 18.66C88.8136 18.18 88.6536 17.64 88.6536 17.04C88.6536 16.32 88.8403 15.7533 89.2136 15.34C89.5869 14.9133 90.1936 14.6133 91.0336 14.44C91.8736 14.2533 92.9869 14.16 94.3736 14.16H95.4336V15.72H94.3936C93.8736 15.72 93.4336 15.74 93.0736 15.78C92.7269 15.82 92.4403 15.8933 92.2136 16C91.9869 16.0933 91.8203 16.2133 91.7136 16.36C91.6203 16.5067 91.5736 16.6933 91.5736 16.92C91.5736 17.2933 91.7003 17.6 91.9536 17.84C92.2203 18.08 92.6003 18.2 93.0936 18.2C93.4803 18.2 93.8203 18.1133 94.1136 17.94C94.4203 17.7533 94.6603 17.5067 94.8336 17.2C95.0069 16.88 95.0936 16.52 95.0936 16.12V13.82C95.0936 13.2333 94.9603 12.82 94.6936 12.58C94.4269 12.3267 93.9736 12.2 93.3336 12.2C92.8003 12.2 92.2336 12.2867 91.6336 12.46C91.0469 12.62 90.4603 12.8667 89.8736 13.2L89.0536 11.18C89.4003 10.94 89.8203 10.7333 90.3136 10.56C90.8203 10.3733 91.3469 10.2333 91.8936 10.14C92.4403 10.0333 92.9603 9.98 93.4536 9.98C94.4803 9.98 95.3203 10.1333 95.9736 10.44C96.6403 10.7333 97.1403 11.1933 97.4736 11.82C97.8069 12.4333 97.9736 13.2267 97.9736 14.2V20H95.1536V18.02H95.2936C95.2136 18.4733 95.0403 18.8667 94.7736 19.2C94.5203 19.52 94.1936 19.7733 93.7936 19.96C93.3936 20.1333 92.9336 20.22 92.4136 20.22ZM103.986 20.22C103.413 20.22 102.86 20.1733 102.326 20.08C101.793 19.9867 101.306 19.86 100.866 19.7C100.426 19.54 100.04 19.34 99.7064 19.1L100.426 17.14C100.76 17.34 101.12 17.52 101.506 17.68C101.906 17.8267 102.32 17.94 102.746 18.02C103.173 18.1 103.593 18.14 104.006 18.14C104.58 18.14 104.993 18.0533 105.246 17.88C105.513 17.6933 105.646 17.4533 105.646 17.16C105.646 16.8933 105.56 16.6933 105.386 16.56C105.213 16.4267 104.96 16.3333 104.626 16.28L102.526 15.9C101.7 15.7533 101.06 15.4533 100.606 15C100.166 14.5333 99.9464 13.94 99.9464 13.22C99.9464 12.5533 100.133 11.98 100.506 11.5C100.88 11.0067 101.393 10.6333 102.046 10.38C102.713 10.1133 103.466 9.98 104.306 9.98C104.786 9.98 105.253 10.02 105.706 10.1C106.16 10.18 106.586 10.3 106.986 10.46C107.4 10.62 107.766 10.8333 108.086 11.1L107.326 13.04C107.073 12.84 106.773 12.6667 106.426 12.52C106.08 12.3733 105.726 12.26 105.366 12.18C105.006 12.0867 104.666 12.04 104.346 12.04C103.746 12.04 103.313 12.14 103.046 12.34C102.78 12.5267 102.646 12.7667 102.646 13.06C102.646 13.2867 102.72 13.48 102.866 13.64C103.026 13.7867 103.266 13.8867 103.586 13.94L105.686 14.32C106.553 14.4667 107.213 14.76 107.666 15.2C108.12 15.6267 108.346 16.2133 108.346 16.96C108.346 17.64 108.166 18.2267 107.806 18.72C107.446 19.2 106.94 19.5733 106.286 19.84C105.633 20.0933 104.866 20.22 103.986 20.22ZM110.07 20V5.9H113.09V12.02H112.81C113.117 11.3667 113.57 10.8667 114.17 10.52C114.783 10.16 115.477 9.98 116.25 9.98C117.037 9.98 117.683 10.1333 118.19 10.44C118.697 10.7333 119.077 11.1867 119.33 11.8C119.583 12.4 119.71 13.1667 119.71 14.1V20H116.69V14.24C116.69 13.7867 116.63 13.42 116.51 13.14C116.403 12.8467 116.237 12.64 116.01 12.52C115.797 12.3867 115.523 12.32 115.19 12.32C114.763 12.32 114.39 12.4133 114.07 12.6C113.763 12.7733 113.523 13.0267 113.35 13.36C113.177 13.6933 113.09 14.08 113.09 14.52V20H110.07Z" fill="#202224"/>
</svg>
