<svg width="28" height="28" viewBox="0 0 28 28" fill="none" xmlns="http://www.w3.org/2000/svg">
<path d="M13.9998 12.6667C13.6462 12.6667 13.3071 12.8071 13.057 13.0572C12.807 13.3072 12.6665 13.6464 12.6665 14V19.3333C12.6665 19.6869 12.807 20.0261 13.057 20.2761C13.3071 20.5262 13.6462 20.6667 13.9998 20.6667C14.3535 20.6667 14.6926 20.5262 14.9427 20.2761C15.1927 20.0261 15.3332 19.6869 15.3332 19.3333V14C15.3332 13.6464 15.1927 13.3072 14.9427 13.0572C14.6926 12.8071 14.3535 12.6667 13.9998 12.6667ZM14.5065 7.43999C14.1819 7.30663 13.8178 7.30663 13.4932 7.43999C13.3295 7.50345 13.18 7.5986 13.0532 7.71999C12.9354 7.84959 12.8407 7.99841 12.7732 8.15999C12.6985 8.31823 12.662 8.49175 12.6665 8.66666C12.6655 8.84213 12.6991 9.01608 12.7655 9.17853C12.8318 9.34098 12.9296 9.48874 13.0532 9.61332C13.1828 9.7311 13.3316 9.8258 13.4932 9.89332C13.6952 9.97631 13.9145 10.0084 14.1318 9.98681C14.3491 9.9652 14.5578 9.89055 14.7395 9.76942C14.9212 9.64828 15.0703 9.48437 15.1739 9.29209C15.2774 9.0998 15.3321 8.88503 15.3332 8.66666C15.3283 8.31363 15.1902 7.9755 14.9465 7.71999C14.8197 7.5986 14.6702 7.50345 14.5065 7.43999ZM13.9998 0.666656C11.3628 0.666656 8.7849 1.44864 6.59224 2.91373C4.39958 4.37881 2.69062 6.4612 1.68145 8.89754C0.672281 11.3339 0.408237 14.0148 0.922706 16.6012C1.43718 19.1876 2.70705 21.5634 4.57175 23.4281C6.43645 25.2928 8.81223 26.5627 11.3986 27.0771C13.9851 27.5916 16.6659 27.3276 19.1023 26.3184C21.5386 25.3092 23.621 23.6002 25.0861 21.4076C26.5512 19.2149 27.3332 16.6371 27.3332 14C27.3332 12.249 26.9883 10.5152 26.3182 8.89754C25.6482 7.27987 24.666 5.81001 23.4279 4.5719C22.1898 3.33379 20.72 2.35166 19.1023 1.6816C17.4846 1.01153 15.7508 0.666656 13.9998 0.666656V0.666656ZM13.9998 24.6667C11.8902 24.6667 9.82788 24.0411 8.07376 22.869C6.31964 21.6969 4.95246 20.031 4.14513 18.0819C3.33779 16.1329 3.12656 13.9882 3.53813 11.919C3.94971 9.8499 4.96561 7.94928 6.45737 6.45752C7.94913 4.96576 9.84975 3.94986 11.9189 3.53828C13.988 3.1267 16.1327 3.33794 18.0818 4.14528C20.0309 4.95261 21.6968 6.31978 22.8689 8.07391C24.0409 9.82803 24.6665 11.8903 24.6665 14C24.6665 16.829 23.5427 19.5421 21.5423 21.5425C19.5419 23.5429 16.8288 24.6667 13.9998 24.6667V24.6667Z" fill="#E90335"/>
</svg>
